<svg width="250" height="250" viewBox="0 0 250 250" fill="none" xmlns="http://www.w3.org/2000/svg">
    <path d="M52.4542 94.1722C51.997 90.0553 48.289 87.0886 44.1722 87.5458C40.0553 88.003 37.0886 91.711 37.5458 95.8278L52.4542 94.1722ZM212.454 95.8269C212.911 91.7101 209.944 88.0024 205.827 87.5457C201.71 87.089 198.002 90.0562 197.546 94.1731L212.454 95.8269ZM25 87.5C20.8579 87.5 17.5 90.8579 17.5 95C17.5 99.1421 20.8579 102.5 25 102.5V87.5ZM225 102.5C229.142 102.5 232.5 99.1421 232.5 95C232.5 90.8579 229.142 87.5 225 87.5V102.5ZM48.2918 91.6459C46.4394 95.3507 47.9411 99.8558 51.6459 101.708C55.3507 103.561 59.8558 102.059 61.7082 98.3541L48.2918 91.6459ZM81.7082 58.3541C83.5606 54.6493 82.0589 50.1442 78.3541 48.2918C74.6493 46.4394 70.1442 47.9411 68.2918 51.6459L81.7082 58.3541ZM188.292 98.3541C190.144 102.059 194.649 103.561 198.354 101.708C202.059 99.8558 203.561 95.3507 201.708 91.6459L188.292 98.3541ZM181.708 51.6459C179.856 47.9411 175.351 46.4394 171.646 48.2918C167.941 50.1442 166.439 54.6493 168.292 58.3541L181.708 51.6459ZM87.5 155C87.5 159.142 90.8579 162.5 95 162.5C99.1421 162.5 102.5 159.142 102.5 155H87.5ZM102.5 135C102.5 130.858 99.1421 127.5 95 127.5C90.8579 127.5 87.5 130.858 87.5 135H102.5ZM117.5 155C117.5 159.142 120.858 162.5 125 162.5C129.142 162.5 132.5 159.142 132.5 155H117.5ZM132.5 135C132.5 130.858 129.142 127.5 125 127.5C120.858 127.5 117.5 130.858 117.5 135H132.5ZM147.5 155C147.5 159.142 150.858 162.5 155 162.5C159.142 162.5 162.5 159.142 162.5 155H147.5ZM162.5 135C162.5 130.858 159.142 127.5 155 127.5C150.858 127.5 147.5 130.858 147.5 135H162.5ZM37.5458 95.8278L46.6758 178.038L61.5842 176.382L52.4542 94.1722L37.5458 95.8278ZM46.6758 178.038C48.2237 191.96 59.9892 202.495 73.9972 202.5L74.0028 187.5C67.6356 187.498 62.2878 182.711 61.5842 176.382L46.6758 178.038ZM73.9972 202.5H176L176.001 187.5H74.0028L73.9972 202.5ZM176 202.5C190.013 202.502 201.786 191.966 203.334 178.039L188.426 176.381C187.722 182.712 182.371 187.501 176.001 187.5L176 202.5ZM203.334 178.039L212.454 95.8269L197.546 94.1731L188.426 176.381L203.334 178.039ZM25 102.5H225V87.5H25V102.5ZM61.7082 98.3541L81.7082 58.3541L68.2918 51.6459L48.2918 91.6459L61.7082 98.3541ZM201.708 91.6459L181.708 51.6459L168.292 58.3541L188.292 98.3541L201.708 91.6459ZM102.5 155V135H87.5V155H102.5ZM132.5 155V135H117.5V155H132.5ZM162.5 155V135H147.5V155H162.5Z" fill="black"/>
</svg>
