<svg width="250" height="250" viewBox="0 0 250 250" fill="none" xmlns="http://www.w3.org/2000/svg">
    <path d="M165.625 179.687C160.156 177.539 157.813 176.367 157.813 173.828C157.813 171.68 159.766 169.727 163.867 169.727C167.969 169.727 171.094 170.898 172.656 171.68L174.805 164.062C172.852 163.281 170.508 162.5 167.383 162.109V155.859H156.445V163.086C150.977 165.039 147.852 169.336 147.852 174.609C147.852 180.664 152.344 184.57 159.375 187.109C164.453 188.867 166.406 190.43 166.406 192.969C166.406 195.703 164.063 197.461 159.766 197.461C155.664 197.461 151.758 196.094 149.219 194.922L147.266 202.734C149.219 203.711 152.539 204.687 156.25 205.078V211.133H167.187V204.102C173.242 201.953 176.172 197.461 176.172 192.187C176.562 186.328 173.047 182.422 165.625 179.687Z" fill="black"/>
    <path d="M177.148 83.9844H175.586L117.969 26.5625C116.406 25 114.062 25 112.5 26.5625L50 89.0625C49.8047 89.2578 49.6094 89.6484 49.4141 89.8438C49.4141 89.8438 49.4141 90.0391 49.2188 90.0391C49.0234 90.4297 49.0234 90.625 48.8281 91.0156C48.8281 91.2109 48.8281 91.4062 48.8281 91.7969V169.922C48.8281 172.07 50.5859 173.828 52.7344 173.828H123.047V224.609H200.586V107.422C200.586 94.5312 190.039 83.9844 177.148 83.9844ZM115.234 34.7656L164.453 83.9844H115.625C115.43 83.9844 115.234 83.9844 115.234 83.9844C110.547 83.9844 106.055 85.5469 102.539 87.8906H62.1094L115.234 34.7656ZM94.9219 95.7031C92.9688 99.2188 91.7969 103.125 91.7969 107.422V130.078L57.4219 95.7031H94.9219ZM56.6406 106.055L86.3281 135.742L56.6406 161.719V106.055ZM123.047 166.016H62.6953L115.234 120.117L123.047 126.953V166.016ZM192.773 216.797H130.859V107.422C130.859 99.0234 123.633 91.9922 115.234 91.7969H177.148C185.742 91.7969 192.773 98.8281 192.773 107.422V216.797Z" fill="black"/>
    <path d="M185.156 107.422H138.281V115.234H185.156V107.422Z" fill="black"/>
    <path d="M185.156 123.047H138.281V130.859H185.156V123.047Z" fill="black"/>
    <path d="M185.156 138.672H138.281V146.484H185.156V138.672Z" fill="black"/>
</svg>
