<svg width="250" height="250" viewBox="0 0 250 250" fill="none" xmlns="http://www.w3.org/2000/svg">
    <path d="M41.6666 218.75H141.875C147.886 218.753 153.827 217.454 159.288 214.942C164.749 212.43 169.601 208.764 173.51 204.198L226.656 142.198C227.769 140.902 228.546 139.352 228.919 137.685C229.292 136.018 229.249 134.285 228.794 132.638C228.339 130.992 227.486 129.482 226.31 128.243C225.135 127.003 223.672 126.072 222.052 125.531L201.552 118.698C196.597 117.087 191.322 116.723 186.193 117.637C181.064 118.551 176.239 120.715 172.146 123.938L138.969 150.469L132.542 137.604C129.098 130.67 123.782 124.838 117.195 120.769C110.608 116.7 103.013 114.558 95.2707 114.583H41.6666C30.177 114.583 20.8333 123.927 20.8333 135.417V197.917C20.8333 209.406 30.177 218.75 41.6666 218.75ZM41.6666 135.417H95.2707C103.219 135.417 110.354 139.823 113.906 146.927L118.562 156.25H72.9166V177.083H135.562C137.165 177.062 138.741 176.67 140.167 175.938L140.198 175.927L140.239 175.906H140.271L140.292 175.896H140.333L140.344 175.885C140.437 175.917 140.375 175.875 140.375 175.875C140.479 175.875 140.396 175.865 140.396 175.865H140.406L140.427 175.854L140.458 175.844L140.479 175.833L140.5 175.823L140.531 175.813L140.552 175.802C140.583 175.802 140.562 175.792 140.573 175.792L140.604 175.771L140.625 175.76L140.646 175.75L140.677 175.74L140.698 175.729H140.708L140.729 175.719L140.76 175.708L140.781 175.698C140.875 175.688 140.812 175.688 140.812 175.688L140.833 175.677C141.235 175.435 141.618 175.163 141.979 174.865L185.167 140.313C187.896 138.146 191.656 137.469 194.958 138.573L200.76 140.51L157.708 190.75C155.728 192.999 153.292 194.801 150.562 196.036C147.833 197.272 144.871 197.913 141.875 197.917H41.6666V135.417ZM166.667 20.8333H166.489C164.792 20.8542 156.01 21.2396 145.833 28.1771C135.927 21.4271 127.354 20.8854 125.333 20.8438L125.021 20.8333H124.979C116.635 20.8333 108.781 24.0938 102.906 29.9792C97.0103 35.8854 93.7499 43.7292 93.7499 52.0833C93.7499 60.4375 97.0103 68.2813 102.719 74L138.281 111.354C139.26 112.37 140.433 113.178 141.731 113.729C143.029 114.28 144.425 114.564 145.835 114.563C147.246 114.562 148.641 114.277 149.939 113.723C151.236 113.17 152.408 112.361 153.385 111.344L188.76 74.1771C194.667 68.2813 197.917 60.4375 197.917 52.0833C197.917 43.7292 194.656 35.8854 188.771 29.9896C185.878 27.0786 182.437 24.7704 178.647 23.1987C174.856 21.627 170.791 20.823 166.687 20.8333H166.667ZM177.083 52.0833C177.083 54.8646 176 57.4792 173.844 59.6354L145.833 89.0625L117.635 59.4479C115.667 57.4792 114.583 54.8646 114.583 52.0833C114.583 49.3021 115.667 46.6875 117.646 44.7083C119.529 42.7923 122.094 41.6989 124.781 41.6667C125.042 41.6771 130.01 42 135.896 46.7188C136.739 47.3958 137.594 48.1667 138.469 49.0313L145.833 56.3958L153.198 49.0313C154.073 48.1667 154.927 47.3958 155.771 46.7188C161.281 42.2917 165.937 41.7396 166.729 41.6771C168.087 41.6768 169.431 41.9455 170.684 42.4676C171.938 42.9896 173.075 43.7547 174.031 44.7188C176 46.6875 177.083 49.3021 177.083 52.0833Z" fill="black"/>
</svg>
