<svg width="250" height="250" viewBox="0 0 250 250" fill="none" xmlns="http://www.w3.org/2000/svg">
    <g clip-path="url(#clip0_456_275)">
        <path d="M184.094 58.3958C164.394 49.1296 144.703 39.8449 125.021 30.5416L1.4375 88.7916L22.5833 99L20.8333 99.2812V208.333H31.25V108.062L38.75 106.771L41.6667 108.177V163.26C41.6667 172.781 95.8958 200.062 106.76 205.437C112.409 208.21 118.625 209.629 124.917 209.582C131.209 209.535 137.404 208.023 143.01 205.167C208.333 171.729 208.333 165.573 208.333 163.26V108.177L248.479 88.8333C248.479 88.8333 208.896 70.0729 184.094 58.3958ZM197.917 161.5C178.791 174.23 158.868 185.719 138.271 195.896C134.112 198.018 129.516 199.142 124.848 199.178C120.179 199.214 115.566 198.162 111.375 196.104C90.703 186.269 70.8726 174.755 52.0833 161.677V113.187L125 148.323L197.917 113.187V161.5ZM125 136.781L56.4167 103.729L123.802 92.1145L122.031 81.8333L40.2604 95.9375L25.6458 88.8958L124.99 42.0729C133.583 46.1666 213.771 83.8854 224.385 88.8854L125 136.781Z" fill="black"/>
    </g>
    <defs>
        <clipPath id="clip0_456_275">
            <rect width="250" height="250" fill="white"/>
        </clipPath>
    </defs>
</svg>
