<?xml version="1.0" encoding="iso-8859-1"?>
<!-- Uploaded to: SVG Repo, www.svgrepo.com, Generator: SVG Repo Mixer Tools -->
<svg fill="#000000" height="800px" width="800px" version="1.1" id="Layer_1" xmlns="http://www.w3.org/2000/svg" xmlns:xlink="http://www.w3.org/1999/xlink" 
	 viewBox="0 0 512 512" xml:space="preserve">
<g>
	<g>
		<path d="M472.316,119.035c-2.892-4.557-8.931-5.91-13.49-3.017c-4.559,2.892-5.909,8.932-3.017,13.49
			c23.972,37.783,36.642,81.522,36.642,126.492c0,127.104-100.813,231.089-226.676,236.234v-31.556c0-5.398-4.376-9.774-9.774-9.774
			s-9.774,4.376-9.774,9.774v31.2c-33.258-3.845-64.503-27.247-88.854-66.887c-4.584-7.462-8.819-15.346-12.707-23.584
			c31.084-16.626,65.654-26.105,101.561-27.564v54.253c0,5.398,4.376,9.774,9.774,9.774s9.774-4.376,9.774-9.774v-64.164
			c0-0.026,0.004-0.051,0.004-0.076s-0.004-0.049-0.004-0.076V148.231c0-0.026,0.004-0.051,0.004-0.076
			c0-0.025-0.004-0.05-0.004-0.076V19.763c59.49,2.403,115.073,26.695,157.423,69.041c3.817,3.817,10.006,3.817,13.822,0
			c3.817-3.817,3.817-10.005,0-13.822C388.668,26.628,324.381,0,256.001,0C114.841,0,0,114.841,0,255.999
			C0,397.159,114.841,512,256.001,512S512,397.159,512,255.999C512,207.315,498.278,159.955,472.316,119.035z M246.226,354.284
			c-38.597,1.447-75.789,11.444-109.295,29.082c-13.558-35.016-21.257-75.299-22.287-117.591h131.582V354.284z M175.993,33.492
			c-9.773,8.841-18.991,19.339-27.478,31.412c-3.104,4.417-2.041,10.513,2.375,13.618c1.71,1.202,3.67,1.779,5.613,1.779
			c3.074,0,6.102-1.448,8.005-4.155c23.142-32.92,51.846-52.494,81.719-56.016v118.036c-54.556-2.217-106.038-22.943-146.869-59.125
			C121.583,59.345,147.524,43.759,175.993,33.492z M85.228,92.625c44.595,40.005,101.105,62.855,160.999,65.103v88.499h-131.58
			c0.765-31.556,5.231-61.98,13.33-90.564c1.471-5.193-1.546-10.597-6.739-12.068c-5.195-1.473-10.598,1.546-12.068,6.739
			c-8.587,30.31-13.304,62.526-14.075,95.893H19.766C22.197,186.774,46.668,132.912,85.228,92.625z M19.766,265.774h75.324
			c1.069,45.813,9.63,89.54,24.74,127.469c-12.159,7.661-23.731,16.39-34.597,26.138C46.671,379.092,22.197,325.228,19.766,265.774z
			 M99.364,432.963c8.977-7.954,18.464-15.165,28.39-21.594c3.983,8.31,8.306,16.278,12.961,23.855
			c10.528,17.138,22.32,31.605,35.058,43.204C147.393,468.161,121.53,452.606,99.364,432.963z"/>
	</g>
</g>
<g>
	<g>
		<path d="M398.527,165.392c-12.254-19.237-28.198-35.695-46.808-48.512l17.559-4.189c5.251-1.252,8.492-6.524,7.24-11.775
			c-1.252-5.251-6.523-8.491-11.776-7.24l-41.185,9.824c-2.522,0.602-4.701,2.18-6.059,4.388c-1.358,2.209-1.783,4.865-1.181,7.387
			l9.824,41.185c1.071,4.488,5.077,7.509,9.499,7.508c0.751,0,1.514-0.086,2.277-0.268c5.251-1.252,8.492-6.524,7.24-11.776
			l-4.518-18.944c16.459,11.338,30.561,25.896,41.402,42.914c15.232,23.913,23.284,51.613,23.284,80.106
			s-8.052,56.192-23.284,80.106c-14.836,23.289-35.76,42-60.51,54.106c-4.849,2.372-6.858,8.226-4.486,13.076
			c1.696,3.468,5.171,5.481,8.788,5.481c1.441,0,2.905-0.321,4.288-0.996c27.983-13.688,51.639-34.839,68.408-61.166
			c17.234-27.057,26.344-58.388,26.344-90.607C424.871,223.78,415.761,192.447,398.527,165.392z"/>
	</g>
</g>
</svg>