<svg width="250" height="250" viewBox="0 0 250 250" fill="none" xmlns="http://www.w3.org/2000/svg">
    <path fill-rule="evenodd" clip-rule="evenodd" d="M120.427 132.353H79.5737C72.9074 132.353 66.4178 134.497 61.0643 138.47C55.7108 142.442 51.7775 148.031 49.8458 154.412H150.147C148.216 148.033 144.284 142.444 138.932 138.472C133.58 134.499 127.092 132.354 120.427 132.353ZM79.5737 117.647C67.4401 117.647 55.8034 122.467 47.2236 131.047C38.6438 139.627 33.8237 151.263 33.8237 163.397C33.8237 164.914 34.4264 166.369 35.4993 167.442C36.5721 168.515 38.0271 169.118 39.5443 169.118H160.456C161.973 169.118 163.428 168.515 164.501 167.442C165.574 166.369 166.177 164.914 166.177 163.397C166.177 151.263 161.357 139.627 152.777 131.047C144.197 122.467 132.56 117.647 120.427 117.647H79.5737Z" fill="#2D2D2D"/>
    <path fill-rule="evenodd" clip-rule="evenodd" d="M166.177 183.823H33.8237C33.8237 188.651 34.7747 193.432 36.6223 197.893C38.4699 202.353 41.1779 206.406 44.5919 209.82C48.0058 213.234 52.0587 215.942 56.5192 217.79C60.9797 219.637 65.7604 220.588 70.5884 220.588H129.412C134.24 220.588 139.021 219.637 143.481 217.79C147.942 215.942 151.995 213.234 155.409 209.82C158.822 206.406 161.531 202.353 163.378 197.893C165.226 193.432 166.177 188.651 166.177 183.823ZM145.853 198.529H54.1473C56.2142 200.845 58.7476 202.697 61.5812 203.965C64.4148 205.232 67.4844 205.885 70.5884 205.882H129.412C132.516 205.885 135.586 205.232 138.419 203.965C141.253 202.697 143.786 200.845 145.853 198.529Z" fill="#2D2D2D"/>
    <path fill-rule="evenodd" clip-rule="evenodd" d="M158.824 169.118H41.1765C39.2264 169.118 37.3561 169.892 35.9772 171.271C34.5982 172.65 33.8236 174.52 33.8236 176.471C33.8236 178.421 34.5982 180.291 35.9772 181.67C37.3561 183.049 39.2264 183.824 41.1765 183.824H158.824C160.774 183.824 162.644 183.049 164.023 181.67C165.402 180.291 166.176 178.421 166.176 176.471C166.176 174.52 165.402 172.65 164.023 171.271C162.644 169.892 160.774 169.118 158.824 169.118ZM41.1765 154.412C35.3261 154.412 29.7154 156.736 25.5786 160.873C21.4417 165.009 19.1177 170.62 19.1177 176.471C19.1177 182.321 21.4417 187.932 25.5786 192.068C29.7154 196.205 35.3261 198.529 41.1765 198.529H158.824C164.674 198.529 170.285 196.205 174.421 192.068C178.558 187.932 180.882 182.321 180.882 176.471C180.882 170.62 178.558 165.009 174.421 160.873C170.285 156.736 164.674 154.412 158.824 154.412H41.1765Z" fill="#2D2D2D"/>
    <path fill-rule="evenodd" clip-rule="evenodd" d="M86.9265 68.3824C86.6181 65.3143 86.9564 62.2158 87.9195 59.2866C88.8827 56.3573 90.4492 53.6626 92.518 51.3762C94.5869 49.0897 97.1121 47.2625 99.9308 46.0122C102.749 44.762 105.799 44.1166 108.882 44.1177H208.765C211.848 44.1166 214.898 44.762 217.716 46.0122C220.535 47.2625 223.06 49.0897 225.129 51.3762C227.198 53.6626 228.764 56.3573 229.728 59.2866C230.691 62.2158 231.029 65.3143 230.721 68.3824L214.706 230.147C214.159 235.586 211.613 240.628 207.561 244.296C203.508 247.964 198.238 249.996 192.772 250H124.875C119.409 249.996 114.139 247.964 110.087 244.296C106.034 240.628 103.488 235.586 102.941 230.147L100.875 209.265L115.507 207.794L117.574 228.676C117.756 230.496 118.611 232.183 119.971 233.407C121.33 234.63 123.097 235.303 124.926 235.294H192.816C194.645 235.303 196.412 234.63 197.772 233.407C199.132 232.183 199.986 230.496 200.169 228.676L216.169 66.9118C216.272 65.8862 216.159 64.8505 215.835 63.8717C215.512 62.8929 214.987 61.993 214.294 61.2303C213.6 60.4676 212.755 59.8592 211.811 59.4446C210.867 59.03 209.847 58.8184 208.816 58.8236H108.882C107.852 58.8184 106.831 59.03 105.888 59.4446C104.944 59.8592 104.098 60.4676 103.405 61.2303C102.711 61.993 102.186 62.8929 101.863 63.8717C101.54 64.8505 101.426 65.8862 101.529 66.9118L107.36 125.86L92.728 127.331L86.9265 68.3824Z" fill="#2D2D2D"/>
    <path d="M151.47 154.412L104.787 194.426C103.455 195.566 101.76 196.192 100.007 196.192C98.2546 196.192 96.5597 195.566 95.2278 194.426L48.5293 154.412H151.47Z" fill="white"/>
    <path fill-rule="evenodd" clip-rule="evenodd" d="M151.47 154.412H48.5293L95.2131 194.426C96.545 195.566 98.2399 196.192 99.9925 196.192C101.745 196.192 103.44 195.566 104.772 194.426L151.47 154.412ZM111.72 169.118H88.2793L99.9999 179.162L111.72 169.118Z" fill="#2D2D2D"/>
    <path fill-rule="evenodd" clip-rule="evenodd" d="M188.235 0C190.185 0 192.056 0.774684 193.435 2.15363C194.814 3.53257 195.588 5.40282 195.588 7.35294V51.4706C195.588 53.4207 194.814 55.291 193.435 56.6699C192.056 58.0489 190.185 58.8235 188.235 58.8235C186.285 58.8235 184.415 58.0489 183.036 56.6699C181.657 55.291 180.882 53.4207 180.882 51.4706V7.35294C180.882 5.40282 181.657 3.53257 183.036 2.15363C184.415 0.774684 186.285 0 188.235 0Z" fill="#2D2D2D"/>
</svg>
