<svg width="250" height="250" viewBox="0 0 250 250" fill="none" xmlns="http://www.w3.org/2000/svg">
    <path d="M203.125 80.7291H188.542C192.708 75.7291 195.312 69.4791 195.312 62.5C195.312 46.6666 182.5 33.8541 166.666 33.8541C149.166 33.8541 133.75 43.125 125 56.875C116.25 43.125 100.833 33.8541 83.3332 33.8541C67.4998 33.8541 54.6873 46.6666 54.6873 62.5C54.6873 69.4791 57.2915 75.7291 61.4582 80.7291H46.8748C39.6873 80.7291 33.854 86.5625 33.854 93.75V119.792C33.854 126.042 38.3332 131.042 44.2707 132.292V203.125C44.2707 210.312 50.104 216.146 57.2915 216.146H192.708C199.896 216.146 205.729 210.312 205.729 203.125V132.292C211.666 131.042 216.146 126.042 216.146 119.792V93.75C216.146 86.5625 210.312 80.7291 203.125 80.7291ZM200.521 117.187H132.812V96.3541H200.521V117.187ZM166.666 49.4791C173.854 49.4791 179.687 55.3125 179.687 62.5C179.687 69.6875 173.854 75.5208 166.666 75.5208H133.75C137.291 60.625 150.729 49.4791 166.666 49.4791ZM83.3332 49.4791C99.2707 49.4791 112.708 60.625 116.25 75.5208H83.3332C76.1457 75.5208 70.3123 69.6875 70.3123 62.5C70.3123 55.3125 76.1457 49.4791 83.3332 49.4791ZM49.479 96.3541H117.187V117.187H49.479V96.3541ZM59.8957 132.812H117.187V200.521H59.8957V132.812ZM190.104 200.521H132.812V132.812H190.104V200.521Z" fill="black"/>
</svg>
