<svg width="250" height="250" viewBox="0 0 250 250" fill="none" xmlns="http://www.w3.org/2000/svg">
    <path d="M204.883 67.8955C204.373 66.3283 203.381 64.9624 202.047 63.9934C200.714 63.0243 199.109 62.5015 197.461 62.5H179.688V35.1562C179.688 30.835 176.196 27.3438 171.875 27.3438H78.125C73.8037 27.3438 70.3125 30.835 70.3125 35.1562V62.5H52.5391C50.8901 62.4978 49.2829 63.0191 47.9492 63.9887C46.6154 64.9583 45.6238 66.3263 45.1172 67.8955L27.3438 122.559V214.844C27.3438 219.165 30.835 222.656 35.1562 222.656H214.844C219.165 222.656 222.656 219.165 222.656 214.844V122.559L204.883 67.8955ZM87.8906 44.9219H162.109V62.5H87.8906V44.9219ZM205.078 205.078H44.9219V125.342L59.6436 80.0781H190.356L205.078 125.342V205.078ZM159.18 139.648H132.812V113.281C132.812 112.207 131.934 111.328 130.859 111.328H119.141C118.066 111.328 117.188 112.207 117.188 113.281V139.648H90.8203C89.7461 139.648 88.8672 140.527 88.8672 141.602V153.32C88.8672 154.395 89.7461 155.273 90.8203 155.273H117.188V181.641C117.188 182.715 118.066 183.594 119.141 183.594H130.859C131.934 183.594 132.812 182.715 132.812 181.641V155.273H159.18C160.254 155.273 161.133 154.395 161.133 153.32V141.602C161.133 140.527 160.254 139.648 159.18 139.648Z" fill="black"/>
</svg>
