<svg width="250" height="250" viewBox="0 0 250 250" fill="none" xmlns="http://www.w3.org/2000/svg">
    <path d="M195.833 117.708C198.958 118.75 202.083 119.792 204.167 119.792C209.375 119.792 214.583 117.708 218.75 113.542C225 107.292 226.042 98.9583 222.917 90.6248C220.833 86.4581 217.708 82.2915 213.542 81.2498C205.208 78.1248 196.875 79.1665 190.625 85.4165C184.375 91.6665 183.333 99.9998 186.458 108.333C188.541 112.5 191.667 115.625 195.833 117.708ZM197.917 92.7083C200 90.625 202.084 89.5833 205.209 89.5833C206.25 89.5833 208.334 89.5833 209.375 90.625C211.459 91.6668 212.5 92.7083 213.542 94.7918C215.625 98.9585 214.584 103.125 211.459 106.25C208.334 109.375 204.167 110.417 200.001 108.333C197.917 107.292 196.876 106.25 195.834 104.167C193.751 99.9998 194.792 95.8333 197.917 92.7083H197.917ZM241.667 155.208C219.792 133.333 184.375 133.333 162.5 155.208C160.417 157.292 160.417 160.417 162.5 162.5C164.583 164.584 167.708 164.583 169.792 162.5C187.5 144.792 216.667 144.792 234.375 162.5C235.417 163.542 236.458 163.542 238.542 163.542C239.584 163.542 241.667 163.542 242.708 162.5C243.75 161.458 243.75 157.292 241.667 155.208ZM148.958 76.0418H118.75C115.625 76.0418 113.542 78.125 113.542 81.25V111.458C113.542 114.583 115.625 116.667 118.75 116.667H148.958C152.083 116.667 154.167 114.583 154.167 111.458V81.25C154.167 79.1668 152.083 76.0418 148.958 76.0418ZM143.75 106.25H123.958V86.4583H143.75V106.25ZM88.5418 86.4583C89.5835 87.5 90.625 87.5 91.6668 87.5C92.7085 87.5 94.7918 86.4583 95.8335 85.4168C115.625 63.5418 115.625 28.125 95.8335 6.25005C93.7503 5.2083 90.6253 4.16679 88.5418 6.25005C86.4583 8.3333 86.4585 11.4583 88.5418 13.5418C105.209 31.25 105.209 60.4168 88.5418 78.125C86.4585 81.25 86.4585 84.375 88.5418 86.4583ZM76.0418 97.9168C72.9168 95.8335 69.7918 93.75 66.6668 94.7918C62.5 95.8335 60.4168 97.9168 58.3335 102.084L6.25026 226.042C4.16701 232.292 6.25026 235.417 7.29201 236.459C8.33376 237.5 9.37526 238.542 12.5003 238.542C13.542 238.542 15.6253 238.542 17.7085 237.5L141.667 185.417C144.792 184.375 147.917 181.25 147.917 178.125C147.917 175 146.875 170.833 144.792 168.75L76.0418 97.9168ZM34.375 186.458L56.25 208.333L17.7083 225L34.375 186.458ZM66.6668 204.167L40.625 178.125C39.5833 177.083 39.5833 177.083 38.5418 177.083L68.75 106.25L137.5 175L66.6668 204.167Z" fill="black"/>
</svg>
