<svg width="250" height="250" viewBox="0 0 250 250" fill="none" xmlns="http://www.w3.org/2000/svg">
    <path fill-rule="evenodd" clip-rule="evenodd" d="M250 178.08H243.144V191.366C243.144 195.984 239.36 199.768 234.741 199.768H226.156C221.537 199.768 217.753 195.984 217.753 191.366V178.08H159.912V191.366C159.912 195.984 156.128 199.768 151.51 199.768H142.924C138.306 199.768 134.521 195.984 134.521 191.366V178.08H127.889V78.247C127.889 68.5424 133.545 61.4827 144.938 57.1085C168.376 47.9736 209.534 47.9736 232.951 57.1085C244.344 61.5031 250 68.5424 250 78.2674V178.08ZM108.195 143.595V181.966V191.081V199.768H95.0724V191.081H17.6595V199.768H4.5166V191.081V181.966V143.595H0V134.969H11.0474L17.2119 115.804C19.0226 110.168 22.054 105.041 27.9744 105.041H41.5243V97.4528C41.5243 94.0551 40.8122 94.34 44.0267 94.34H69.0918C71.7773 94.34 71.1873 94.0755 71.1873 96.9441V105.041H87.0361C92.9565 105.041 96.3745 110.067 97.7987 115.804L102.559 134.969H112.712V143.595H108.195ZM36.7025 173.767H75.4801V182.922H36.7025V173.767ZM8.91113 152.466C18.7988 152.771 24.8413 156.921 26.3875 165.548H8.91113V152.466ZM102.559 152.466C92.6717 152.771 86.6292 156.921 85.083 165.548H102.559V152.466ZM15.7674 134.969H96.9645L93.4855 118.896C92.5293 114.502 89.7827 110.677 85.2661 110.677H29.1138C24.5972 110.677 22.2982 114.583 20.8944 118.896L15.7674 134.969ZM162.252 153.259H215.637C216.105 153.259 216.471 153.87 216.471 154.602V158.63C216.471 159.383 216.085 159.973 215.637 159.973H162.252C161.784 159.973 161.418 159.363 161.418 158.63V154.602C161.397 153.87 161.784 153.259 162.252 153.259ZM162.252 163.432H215.637C216.105 163.432 216.471 164.042 216.471 164.775V168.803C216.471 169.535 216.085 170.146 215.637 170.146H162.252C161.784 170.146 161.418 169.535 161.418 168.803V164.775C161.397 164.042 161.784 163.432 162.252 163.432ZM138.896 78.8167H182.434C183.777 78.8167 184.896 79.9153 184.896 81.2784V117.248C184.896 118.591 183.797 119.71 182.434 119.71H138.896C137.553 119.71 136.434 118.612 136.434 117.248V81.2581C136.434 79.9153 137.553 78.8167 138.896 78.8167ZM195.251 78.8167H238.79C240.133 78.8167 241.252 79.9153 241.252 81.2784V117.248C241.252 118.591 240.153 119.71 238.79 119.71H195.251C193.909 119.71 192.79 118.612 192.79 117.248V81.2581C192.81 79.9153 193.909 78.8167 195.251 78.8167ZM243.062 162.821C243.062 160.319 242.208 158.223 240.479 156.514C238.749 154.785 236.633 153.931 234.151 153.931C231.73 153.931 229.655 154.805 227.885 156.514C226.115 158.244 225.26 160.319 225.26 162.821C225.26 165.242 226.135 167.297 227.885 169.006C229.655 170.736 231.73 171.59 234.151 171.59C236.613 171.59 238.749 170.736 240.479 169.006C242.208 167.297 243.062 165.263 243.062 162.821ZM152.608 162.821C152.608 160.319 151.733 158.223 150.024 156.514C148.295 154.785 146.2 153.931 143.697 153.931C141.235 153.931 139.099 154.805 137.37 156.514C135.64 158.244 134.827 160.319 134.827 162.821C134.827 165.242 135.64 167.297 137.37 169.006C139.099 170.736 141.215 171.59 143.697 171.59C146.2 171.59 148.295 170.736 150.024 169.006C151.733 167.297 152.608 165.263 152.608 162.821Z" fill="black"/>
</svg>
