<svg width="250" height="250" viewBox="0 0 250 250" fill="none" xmlns="http://www.w3.org/2000/svg">
    <path d="M229.167 52.0833H177.083V20.8333C177.083 18.0706 175.986 15.4211 174.032 13.4676C172.079 11.5141 169.429 10.4166 166.667 10.4166H83.3334C80.5707 10.4166 77.9212 11.5141 75.9677 13.4676C74.0142 15.4211 72.9167 18.0706 72.9167 20.8333V52.0833H20.8334C18.0707 52.0833 15.4212 53.1808 13.4677 55.1343C11.5142 57.0878 10.4167 59.7373 10.4167 62.5C10.4167 65.2626 11.5142 67.9121 13.4677 69.8657C15.4212 71.8192 18.0707 72.9166 20.8334 72.9166H32.4688L52.1667 230.458C52.4815 232.977 53.7052 235.294 55.608 236.975C57.5108 238.655 59.9616 239.583 62.5001 239.583H187.5C190.039 239.583 192.489 238.655 194.392 236.975C196.295 235.294 197.519 232.977 197.833 230.458L217.531 72.9166H229.167C231.929 72.9166 234.579 71.8192 236.532 69.8657C238.486 67.9121 239.583 65.2626 239.583 62.5C239.583 59.7373 238.486 57.0878 236.532 55.1343C234.579 53.1808 231.929 52.0833 229.167 52.0833ZM93.7501 31.25H156.25V52.0833H93.7501V31.25ZM178.302 218.75H71.698L53.4688 72.9166H196.531L178.302 218.75Z" fill="black"/>
</svg>
