<svg width="25" height="25" viewBox="0 0 25 25" fill="none" xmlns="http://www.w3.org/2000/svg">
    <path d="M9.37498 5.20831H7.29165C6.14105 5.20831 5.20831 6.14105 5.20831 7.29165V19.7916C5.20831 20.9423 6.14105 21.875 7.29165 21.875H9.37498M15.625 5.20831H17.7083C18.8589 5.20831 19.7916 6.14105 19.7916 7.29165V9.37498" stroke="white" stroke-width="2" stroke-linecap="round" stroke-linejoin="round"/>
    <path d="M15.5229 21.1816L13.2451 21.6371L13.7006 19.3594C13.7411 19.1577 13.8401 18.9725 13.9855 18.8271L18.2292 14.5833L20.3125 12.5L22.3822 14.5697L20.2989 16.653L16.0552 20.8967C15.9098 21.0421 15.7246 21.1412 15.5229 21.1816Z" stroke="white" stroke-width="2" stroke-linecap="round" stroke-linejoin="round"/>
    <path d="M9.375 5.20833C9.375 4.05774 10.3077 3.125 11.4583 3.125H13.5417C14.6923 3.125 15.625 4.05774 15.625 5.20833V7.29167H9.375V5.20833Z" stroke="white" stroke-width="2" stroke-linecap="round" stroke-linejoin="round"/>
</svg>
