<svg width="1000" height="1000" viewBox="0 0 20 20" fill="none" xmlns="http://www.w3.org/2000/svg">
<path d="M9.99997 6.875C9.38191 6.875 8.77772 7.05828 8.26382 7.40166C7.74991 7.74504 7.34937 8.2331 7.11285 8.80411C6.87633 9.37513 6.81444 10.0035 6.93502 10.6097C7.0556 11.2158 7.35323 11.7727 7.79027 12.2097C8.2273 12.6467 8.78413 12.9444 9.39032 13.065C9.99651 13.1855 10.6248 13.1236 11.1959 12.8871C11.7669 12.6506 12.2549 12.2501 12.5983 11.7362C12.9417 11.2223 13.125 10.6181 13.125 10C13.1225 9.17196 12.7925 8.37854 12.207 7.79302C11.6214 7.20751 10.828 6.87747 9.99997 6.875ZM16.7468 10C16.7452 10.292 16.7238 10.5836 16.6828 10.8727L18.5847 12.3617C18.6676 12.4301 18.7234 12.5257 18.7422 12.6315C18.761 12.7373 18.7416 12.8463 18.6875 12.9391L16.8883 16.0453C16.8336 16.1373 16.7482 16.207 16.6472 16.2422C16.5461 16.2774 16.4359 16.2759 16.3359 16.2379L14.0996 15.3395C13.6339 15.698 13.1243 15.9956 12.5832 16.225L12.2488 18.5992C12.2301 18.7056 12.175 18.8021 12.093 18.8724C12.011 18.9426 11.9072 18.9822 11.7992 18.9844H8.20076C8.09476 18.9823 7.99259 18.9444 7.91093 18.8768C7.82928 18.8092 7.77295 18.7159 7.75115 18.6121L7.41677 16.2379C6.87414 16.0112 6.36418 15.7131 5.90036 15.3516L3.66404 16.25C3.56407 16.2881 3.45389 16.2896 3.35287 16.2545C3.25184 16.2193 3.16645 16.1497 3.11169 16.0578L1.31247 12.952C1.25832 12.8592 1.23891 12.7502 1.25774 12.6444C1.27656 12.5386 1.33237 12.443 1.41521 12.3746L3.31716 10.8855C3.27659 10.5921 3.25519 10.2963 3.2531 10C3.25472 9.708 3.27613 9.41645 3.31716 9.12734L1.41521 7.63828C1.33237 7.56988 1.27656 7.47426 1.25774 7.36849C1.23891 7.26272 1.25832 7.15371 1.31247 7.06094L3.11169 3.95469C3.16639 3.86273 3.25176 3.79301 3.35279 3.75779C3.45381 3.72256 3.56403 3.72409 3.66404 3.76211L5.90036 4.66055C6.36604 4.30196 6.87563 4.00436 7.41677 3.775L7.75115 1.40078C7.76986 1.29443 7.82493 1.19788 7.90693 1.12763C7.98894 1.05738 8.0928 1.01779 8.20076 1.01562H11.7992C11.9052 1.01769 12.0074 1.05562 12.089 1.12323C12.1707 1.19084 12.227 1.28414 12.2488 1.38789L12.5832 3.76211C13.1265 3.98866 13.6371 4.28674 14.1015 4.64844L16.3359 3.75C16.4359 3.71195 16.5461 3.71036 16.6471 3.74551C16.7481 3.78066 16.8335 3.8503 16.8883 3.94219L18.6875 7.04844C18.7416 7.14121 18.761 7.25023 18.7422 7.35599C18.7234 7.46176 18.6676 7.55738 18.5847 7.62578L16.6828 9.11484C16.7233 9.40819 16.7447 9.70387 16.7468 10Z" fill="white"/>
</svg>
